Normalized EMG Linear Envelopes
nRows=32
nColumns=17

endheader
time	        VM	        VL	        RF	       GRA	        TA	   ADDLONG	   SEMIMEM	      BFLH	        GM	        GL	       TFL	   GLUTMAX	   GLUTMED	      PIRI	    OBTINT	        QF	
1.985	  0.092436	  0.090113	  0.009197	  0.036353	  0.022658	  0.020281	  0.059639	  0.049041	  0.054123	  0.018298	  0.004364	  0.195620	  0.298305	  0.250681	  0.391954	  0.123942	
1.9855	  0.096253	  0.093609	  0.009522	  0.037401	  0.023306	  0.020805	  0.061308	  0.050766	  0.056420	  0.019923	  0.004649	  0.200909	  0.304682	  0.258392	  0.399755	  0.127847	
1.986	  0.100145	  0.097171	  0.009852	  0.038464	  0.023963	  0.021335	  0.063000	  0.052522	  0.058764	  0.021593	  0.004941	  0.206264	  0.311103	  0.266218	  0.407596	  0.131812	
1.9865	  0.104112	  0.100798	  0.010188	  0.039542	  0.024629	  0.021871	  0.064714	  0.054307	  0.061154	  0.023306	  0.005240	  0.211685	  0.317567	  0.274160	  0.415473	  0.135837	
1.987	  0.108155	  0.104492	  0.010529	  0.040633	  0.025303	  0.022412	  0.066449	  0.056122	  0.063590	  0.025065	  0.005546	  0.217169	  0.324071	  0.282215	  0.423383	  0.139922	
1.9875	  0.112274	  0.108252	  0.010876	  0.041739	  0.025986	  0.022959	  0.068205	  0.057966	  0.066072	  0.026869	  0.005860	  0.222717	  0.330613	  0.290385	  0.431322	  0.144066	
1.988	  0.116469	  0.112077	  0.011229	  0.042858	  0.026678	  0.023512	  0.069983	  0.059841	  0.068602	  0.028719	  0.006180	  0.228328	  0.337191	  0.298668	  0.439288	  0.148270	
1.9885	  0.120741	  0.115970	  0.011587	  0.043992	  0.027378	  0.024070	  0.071781	  0.061745	  0.071178	  0.030615	  0.006509	  0.234000	  0.343801	  0.307062	  0.447276	  0.152532	
1.989	  0.125089	  0.119928	  0.011951	  0.045139	  0.028086	  0.024634	  0.073600	  0.063679	  0.073801	  0.032558	  0.006844	  0.239732	  0.350442	  0.315568	  0.455283	  0.156853	
1.9895	  0.129513	  0.123954	  0.012321	  0.046299	  0.028803	  0.025203	  0.075439	  0.065642	  0.076472	  0.034548	  0.007187	  0.245524	  0.357111	  0.324185	  0.463306	  0.161231	
1.99	  0.134015	  0.128045	  0.012696	  0.047473	  0.029527	  0.025777	  0.077297	  0.067635	  0.079190	  0.036586	  0.007538	  0.251373	  0.363804	  0.332910	  0.471339	  0.165667	
1.9905	  0.138593	  0.132203	  0.013077	  0.048660	  0.030259	  0.026356	  0.079175	  0.069658	  0.081955	  0.038673	  0.007896	  0.257279	  0.370520	  0.341744	  0.479380	  0.170160	
1.991	  0.143248	  0.136428	  0.013463	  0.049859	  0.030999	  0.026939	  0.081073	  0.071709	  0.084768	  0.040808	  0.008262	  0.263241	  0.377255	  0.350684	  0.487423	  0.174709	
1.9915	  0.147981	  0.140718	  0.013855	  0.051071	  0.031747	  0.027528	  0.082988	  0.073790	  0.087629	  0.042993	  0.008635	  0.269255	  0.384006	  0.359729	  0.495465	  0.179314	
1.992	  0.152789	  0.145075	  0.014252	  0.052295	  0.032502	  0.028120	  0.084922	  0.075899	  0.090536	  0.045227	  0.009017	  0.275323	  0.390770	  0.368878	  0.503501	  0.183974	
1.9925	  0.157675	  0.149497	  0.014654	  0.053532	  0.033265	  0.028717	  0.086874	  0.078038	  0.093491	  0.047511	  0.009406	  0.281440	  0.397543	  0.378129	  0.511526	  0.188688	
1.993	  0.162638	  0.153985	  0.015062	  0.054780	  0.034034	  0.029318	  0.088842	  0.080204	  0.096494	  0.049846	  0.009803	  0.287607	  0.404323	  0.387480	  0.519536	  0.193455	
1.9935	  0.167676	  0.158538	  0.015476	  0.056039	  0.034811	  0.029923	  0.090828	  0.082399	  0.099544	  0.052232	  0.010208	  0.293820	  0.411104	  0.396930	  0.527525	  0.198275	
1.994	  0.172791	  0.163156	  0.015894	  0.057310	  0.035594	  0.030532	  0.092829	  0.084622	  0.102641	  0.054669	  0.010621	  0.300079	  0.417885	  0.406476	  0.535488	  0.203146	
1.9945	  0.177982	  0.167839	  0.016318	  0.058591	  0.036383	  0.031144	  0.094846	  0.086873	  0.105785	  0.057158	  0.011042	  0.306381	  0.424661	  0.416117	  0.543421	  0.208068	
1.995	  0.183248	  0.172586	  0.016747	  0.059883	  0.037179	  0.031759	  0.096878	  0.089151	  0.108975	  0.059698	  0.011471	  0.312724	  0.431429	  0.425850	  0.551317	  0.213040	
1.9955	  0.188590	  0.177396	  0.017181	  0.061185	  0.037981	  0.032377	  0.098924	  0.091455	  0.112213	  0.062291	  0.011908	  0.319107	  0.438183	  0.435672	  0.559172	  0.218059	
1.996	  0.194006	  0.182270	  0.017620	  0.062497	  0.038789	  0.032998	  0.100984	  0.093787	  0.115497	  0.064937	  0.012353	  0.325526	  0.444921	  0.445582	  0.566979	  0.223126	
1.9965	  0.199496	  0.187206	  0.018064	  0.063818	  0.039602	  0.033621	  0.103056	  0.096144	  0.118827	  0.067636	  0.012806	  0.331979	  0.451637	  0.455577	  0.574732	  0.228239	
1.997	  0.205060	  0.192204	  0.018513	  0.065147	  0.040420	  0.034247	  0.105141	  0.098527	  0.122202	  0.070388	  0.013268	  0.338465	  0.458328	  0.465654	  0.582427	  0.233397	
1.9975	  0.210697	  0.197263	  0.018967	  0.066486	  0.041244	  0.034874	  0.107237	  0.100936	  0.125624	  0.073193	  0.013737	  0.344980	  0.464988	  0.475810	  0.590055	  0.238598	
1.998	  0.216407	  0.202382	  0.019426	  0.067832	  0.042072	  0.035504	  0.109344	  0.103369	  0.129090	  0.076052	  0.014215	  0.351521	  0.471614	  0.486043	  0.597611	  0.243840	
1.9985	  0.222187	  0.207562	  0.019889	  0.069185	  0.042904	  0.036134	  0.111461	  0.105827	  0.132601	  0.078965	  0.014701	  0.358088	  0.478201	  0.496348	  0.605089	  0.249123	
1.999	  0.228039	  0.212800	  0.020356	  0.070546	  0.043741	  0.036766	  0.113587	  0.108308	  0.136157	  0.081932	  0.015195	  0.364675	  0.484743	  0.506723	  0.612482	  0.254445	
1.9995	  0.233961	  0.218096	  0.020829	  0.071914	  0.044581	  0.037399	  0.115721	  0.110812	  0.139756	  0.084953	  0.015697	  0.371282	  0.491236	  0.517164	  0.619784	  0.259803	
2	  0.239951	  0.223449	  0.021305	  0.073287	  0.045424	  0.038031	  0.117862	  0.113339	  0.143398	  0.088029	  0.016207	  0.377904	  0.497675	  0.527668	  0.626986	  0.265197	
2.0005	  0.246010	  0.228857	  0.021785	  0.074666	  0.046271	  0.038665	  0.120009	  0.115888	  0.147083	  0.091160	  0.016726	  0.384538	  0.504055	  0.538231	  0.634084	  0.270625	
